<svg width="12" height="12" viewBox="0 0 12 12" fill="none" xmlns="http://www.w3.org/2000/svg">
<path fill-rule="evenodd" clip-rule="evenodd" d="M10 4.73329C10 4.95367 9.98247 5.16992 9.94874 5.38071C9.50612 8.4831 6.33814 11.2 6 11.2C5.66186 11.2 2.49388 8.4831 2.05126 5.38071C2.01753 5.16992 2 4.95367 2 4.73329L2.0001 4.70426L2 4.67328H2.00043C2.03225 2.4734 3.81073 0.699951 6 0.699951C8.18927 0.699951 9.96775 2.4734 9.99957 4.67328H10L9.9999 4.70426L10 4.73329ZM6 5.94995C6.69036 5.94995 7.25 5.39031 7.25 4.69995C7.25 4.0096 6.69036 3.44995 6 3.44995C5.30964 3.44995 4.75 4.0096 4.75 4.69995C4.75 5.39031 5.30964 5.94995 6 5.94995Z" fill="#AAAAAA"/>
</svg>
