<svg width="40" height="40" viewBox="0 0 40 40" fill="none" xmlns="http://www.w3.org/2000/svg">
<mask id="mask0_1070_46641" style="mask-type:alpha" maskUnits="userSpaceOnUse" x="0" y="0" width="40" height="40">
<rect width="40" height="40" fill="#FF0000"/>
</mask>
<g mask="url(#mask0_1070_46641)">
<rect x="13.5" y="5.5" width="13" height="14" rx="1.5" stroke="url(#paint0_linear_1070_46641)" stroke-width="3"/>
<path d="M1 17H39V32C39 34.7614 36.7614 37 34 37H6C3.23858 37 1 34.7614 1 32V17Z" fill="url(#paint1_linear_1070_46641)"/>
<path d="M0 15C0 11.6863 2.68629 9 6 9H34C37.3137 9 40 11.6863 40 15V23C27.1612 28.1355 12.8388 28.1355 0 23V15Z" fill="url(#paint2_linear_1070_46641)"/>
<rect x="18" y="24" width="4" height="6" rx="1" fill="#D9D9D9"/>
</g>
<defs>
<linearGradient id="paint0_linear_1070_46641" x1="20" y1="4" x2="20" y2="14.5" gradientUnits="userSpaceOnUse">
<stop stop-color="#505050"/>
<stop offset="1"/>
</linearGradient>
<linearGradient id="paint1_linear_1070_46641" x1="37" y1="35" x2="1" y2="17" gradientUnits="userSpaceOnUse">
<stop stop-color="#474747"/>
<stop offset="1" stop-color="#777777"/>
</linearGradient>
<linearGradient id="paint2_linear_1070_46641" x1="6.5" y1="9" x2="40" y2="27.5" gradientUnits="userSpaceOnUse">
<stop stop-color="#545454"/>
<stop offset="1" stop-color="#343434"/>
</linearGradient>
</defs>
</svg>
