<svg width="40" height="40" viewBox="0 0 40 40" fill="none" xmlns="http://www.w3.org/2000/svg">
<path d="M14 2H32C34.2091 2 36 3.79086 36 6V34C36 36.2091 34.2091 38 32 38H14V2Z" fill="url(#paint0_radial_54_30162)"/>
<path d="M9 4H31C33.2091 4 35 5.79086 35 8V32C35 34.2091 33.2091 36 31 36H9V4Z" fill="url(#paint1_radial_54_30162)"/>
<path d="M8 4H30C32.2091 4 34 5.79086 34 8V32C34 34.2091 32.2091 36 30 36H8V4Z" fill="url(#paint2_radial_54_30162)"/>
<path d="M7 4H29C31.2091 4 33 5.79086 33 8V32C33 34.2091 31.2091 36 29 36H7V4Z" fill="url(#paint3_linear_54_30162)"/>
<path d="M9 2H28C30.2091 2 32 3.79086 32 6V34C32 36.2091 30.2091 38 28 38H9V2Z" fill="url(#paint4_radial_54_30162)"/>
<path d="M20 0H22C23.1046 0 24 0.895431 24 2H20V0Z" fill="#EA7723"/>
<path d="M14 2C14 0.89543 14.8954 0 16 0H21L20.7275 0.28893C20.2603 0.784464 20 1.43983 20 2.12093V14L17 11.8791L14 14V2Z" fill="url(#paint5_linear_54_30162)"/>
<rect x="8" y="2" width="1" height="36" fill="#34A4F4"/>
<path d="M4 4C4 2.89543 4.89543 2 6 2H8V38H6C4.89543 38 4 37.1046 4 36V4Z" fill="#49AFF9"/>
<defs>
<radialGradient id="paint0_radial_54_30162" cx="0" cy="0" r="1" gradientUnits="userSpaceOnUse" gradientTransform="translate(32.0172 32) rotate(-120.24) scale(27.4908 19.9428)">
<stop stop-color="#0089EC"/>
<stop offset="1" stop-color="#71C3FF"/>
</radialGradient>
<radialGradient id="paint1_radial_54_30162" cx="0" cy="0" r="1" gradientUnits="userSpaceOnUse" gradientTransform="translate(25.8519 13.6842) rotate(59.0216) scale(19.6441 19.7846)">
<stop stop-color="white"/>
<stop offset="1" stop-color="#90B9E9"/>
</radialGradient>
<radialGradient id="paint2_radial_54_30162" cx="0" cy="0" r="1" gradientUnits="userSpaceOnUse" gradientTransform="translate(24.8519 13.6842) rotate(59.0216) scale(19.6441 19.7846)">
<stop stop-color="white"/>
<stop offset="1" stop-color="#ACD8F9"/>
</radialGradient>
<linearGradient id="paint3_linear_54_30162" x1="29.1481" y1="6.52632" x2="31.9279" y2="30.7598" gradientUnits="userSpaceOnUse">
<stop stop-color="#F2FCFF"/>
<stop offset="1" stop-color="#BEE8FF"/>
</linearGradient>
<radialGradient id="paint4_radial_54_30162" cx="0" cy="0" r="1" gradientUnits="userSpaceOnUse" gradientTransform="translate(27.8362 32) rotate(-121.36) scale(27.813 22.9151)">
<stop stop-color="#0089EC"/>
<stop offset="1" stop-color="#71C3FF"/>
</radialGradient>
<linearGradient id="paint5_linear_54_30162" x1="17.5" y1="0" x2="17.5" y2="10.6047" gradientUnits="userSpaceOnUse">
<stop stop-color="#FFA756"/>
<stop offset="1" stop-color="#FF8023"/>
</linearGradient>
</defs>
</svg>
