<svg width="52" height="52" viewBox="0 0 52 52" fill="none" xmlns="http://www.w3.org/2000/svg">
<path d="M5.20117 20.8008H17.3345L26.0012 46.8008L5.20117 20.8008Z" fill="url(#paint0_radial_13253_634723)"/>
<path d="M36.834 20.8008H17.334L26.0007 46.8008L36.834 20.8008Z" fill="url(#paint1_radial_13253_634723)"/>
<path d="M47.668 20.8008H36.8346L26.0013 46.8008L47.668 20.8008Z" fill="url(#paint2_radial_13253_634723)"/>
<path d="M30.334 9.5332H37.2673L47.6673 20.7999H36.834L30.334 9.5332Z" fill="url(#paint3_radial_13253_634723)"/>
<path d="M16.9012 9.5332H22.9678L17.3345 20.7999H5.20117L16.9012 9.5332Z" fill="url(#paint4_radial_13253_634723)"/>
<path d="M36.834 20.7999L30.334 9.5332H22.9673L17.334 20.7999H36.834Z" fill="url(#paint5_radial_13253_634723)"/>
<path d="M22.9673 9.5332H30.334L18.2007 20.7999H17.334L22.9673 9.5332Z" fill="url(#paint6_radial_13253_634723)"/>
<path d="M32.502 38.9992V31.1992L26.002 46.7992L32.502 38.9992Z" fill="url(#paint7_radial_13253_634723)"/>
<path d="M12.134 5.36603L10.6693 6.2844C9.80093 6.82708 9.15254 7.64678 8.83606 8.61069L8.39222 9.95409L8.29381 10.2501L8.23591 10.4L8.17416 10.2501L8.07575 9.95409L7.63191 8.61069C7.31543 7.64868 6.66704 6.82708 5.79866 6.2844L4.33398 5.36603L5.79287 4.36796C6.55897 3.84236 7.13789 3.09097 7.44279 2.22572L8.2282 0L8.23398 0.0132823L8.23784 0L9.02325 2.22572C9.33008 3.09097 9.90707 3.84236 10.6732 4.36796L12.1321 5.36603H12.134Z" fill="url(#paint8_radial_13253_634723)"/>
<path d="M45.9328 14.032L44.4681 14.9504C43.5998 15.4931 42.9514 16.3128 42.6349 17.2767L42.1911 18.6201L42.0926 18.9161L42.0347 19.066L41.973 18.9161L41.8746 18.6201L41.4307 17.2767C41.1143 16.3147 40.4659 15.4931 39.5975 14.9504L38.1328 14.032L39.5917 13.034C40.3578 12.5084 40.9367 11.757 41.2416 10.8917L42.027 8.66602L42.0328 8.6793L42.0367 8.66602L42.8221 10.8917C43.1289 11.757 43.7059 12.5084 44.472 13.034L45.9309 14.032H45.9328Z" fill="url(#paint9_radial_13253_634723)"/>
<path d="M39.0008 26.1093L38.0232 26.7204C37.4449 27.0807 37.0131 27.6278 36.8013 28.271L36.5053 29.1676L36.4402 29.3651L36.4021 29.4665L36.3614 29.3651L36.2962 29.1676L36.0003 28.271C35.7885 27.6305 35.3567 27.0834 34.7783 26.7204L33.8008 26.1093L34.7729 25.4448C35.2834 25.0952 35.669 24.5935 35.8726 24.017L36.3967 22.5332L36.4021 22.5412V22.5332L36.9289 24.017C37.1326 24.5935 37.5182 25.0952 38.0287 25.4448L39.0008 26.1093Z" fill="url(#paint10_radial_13253_634723)"/>
<defs>
<radialGradient id="paint0_radial_13253_634723" cx="0" cy="0" r="1" gradientUnits="userSpaceOnUse" gradientTransform="translate(7.15117 21.6133) rotate(60.1815) scale(31.3723 33.1606)">
<stop stop-color="#FF7CAA"/>
<stop offset="1" stop-color="#FF2E79"/>
</radialGradient>
<radialGradient id="paint1_radial_13253_634723" cx="0" cy="0" r="1" gradientUnits="userSpaceOnUse" gradientTransform="translate(19.1621 21.6133) rotate(72.9904) scale(26.3397 26.9067)">
<stop stop-color="#FF98BC"/>
<stop offset="1" stop-color="#FF619A"/>
</radialGradient>
<radialGradient id="paint2_radial_13253_634723" cx="0" cy="0" r="1" gradientUnits="userSpaceOnUse" gradientTransform="translate(45.6367 21.6133) rotate(120.838) scale(31.7005 34.1846)">
<stop stop-color="#FF7CAA"/>
<stop offset="1" stop-color="#FF2E79"/>
</radialGradient>
<radialGradient id="paint3_radial_13253_634723" cx="0" cy="0" r="1" gradientUnits="userSpaceOnUse" gradientTransform="translate(42.034 20.7999) rotate(-130.236) scale(14.7588 15.3441)">
<stop stop-color="#FF9ABD"/>
<stop offset="1" stop-color="#FF82AF"/>
</radialGradient>
<radialGradient id="paint4_radial_13253_634723" cx="0" cy="0" r="1" gradientUnits="userSpaceOnUse" gradientTransform="translate(6.8668 9.88529) rotate(41.5141) scale(17.7953 21.6385)">
<stop offset="0.0104167" stop-color="#FFB6CF"/>
<stop offset="1" stop-color="#FF85B1"/>
</radialGradient>
<radialGradient id="paint5_radial_13253_634723" cx="0" cy="0" r="1" gradientUnits="userSpaceOnUse" gradientTransform="translate(20.8007 20.7999) rotate(-45) scale(15.9335 13.5329)">
<stop stop-color="#FFC0D6"/>
<stop offset="1" stop-color="#FF98BD"/>
</radialGradient>
<radialGradient id="paint6_radial_13253_634723" cx="0" cy="0" r="1" gradientUnits="userSpaceOnUse" gradientTransform="translate(27.734 9.5332) rotate(129.806) scale(13.5378 16.288)">
<stop stop-color="#FFACC9"/>
<stop offset="1" stop-color="#FFF3F8"/>
</radialGradient>
<radialGradient id="paint7_radial_13253_634723" cx="0" cy="0" r="1" gradientUnits="userSpaceOnUse" gradientTransform="translate(25.1353 33.3659) rotate(23.9625) scale(8.53568 5.7319)">
<stop stop-color="#FF7CAA"/>
<stop offset="1" stop-color="#F22C74"/>
</radialGradient>
<radialGradient id="paint8_radial_13253_634723" cx="0" cy="0" r="1" gradientUnits="userSpaceOnUse" gradientTransform="translate(10.574) rotate(118.443) scale(10.9179 11.1858)">
<stop stop-color="#FFACC9"/>
<stop offset="1" stop-color="#FFF3F8"/>
</radialGradient>
<radialGradient id="paint9_radial_13253_634723" cx="0" cy="0" r="1" gradientUnits="userSpaceOnUse" gradientTransform="translate(44.3728 8.66602) rotate(118.443) scale(10.9179 11.1858)">
<stop stop-color="#FFACC9"/>
<stop offset="1" stop-color="#FFF3F8"/>
</radialGradient>
<radialGradient id="paint10_radial_13253_634723" cx="0" cy="0" r="1" gradientUnits="userSpaceOnUse" gradientTransform="translate(37.9608 22.5332) rotate(118.443) scale(7.27858 7.45719)">
<stop stop-color="#FFACC9"/>
<stop offset="1" stop-color="#FFF3F8"/>
</radialGradient>
</defs>
</svg>
