<svg width="40" height="40" viewBox="0 0 40 40" fill="none" xmlns="http://www.w3.org/2000/svg">
<path fill-rule="evenodd" clip-rule="evenodd" d="M15.0381 4.63728C14.6596 4.22848 14.1277 3.99609 13.5706 3.99609H2C0.895431 3.99609 0 4.89152 0 5.99609V9.99609V35.9961C0 37.1007 0.895431 37.9961 2 37.9961H38C39.1046 37.9961 40 37.1007 40 35.9961V11.9961C40 10.8915 39.1046 9.99609 38 9.99609H20.8738C20.3167 9.99609 19.7848 9.76371 19.4063 9.35491L15.0381 4.63728Z" fill="#FF8E39"/>
<rect x="4" y="11.9961" width="32" height="10" rx="2" fill="white"/>
<rect y="13.9961" width="40" height="24" rx="2" fill="#FFB84E"/>
<rect x="15" y="24.9961" width="10" height="2" rx="1" fill="white"/>
</svg>
