<svg width="40" height="40" viewBox="0 0 40 40" fill="none" xmlns="http://www.w3.org/2000/svg">
<mask id="mask0_15260_10175" style="mask-type:alpha" maskUnits="userSpaceOnUse" x="0" y="0" width="40" height="40">
<rect width="40" height="40" fill="#FF0000"/>
</mask>
<g mask="url(#mask0_15260_10175)">
<path d="M2 17.5C2 13.9101 4.91015 11 8.5 11H16V24H8.5C4.91015 24 2 21.0899 2 17.5Z" fill="url(#paint0_linear_15260_10175)"/>
<path d="M16 11L18.6766 10.7026C22.7906 10.2455 26.6615 8.52314 29.7552 5.77311L32.3356 3.47943C32.9805 2.90619 34 3.36399 34 4.22684V31.5858C34 32.4767 32.9229 32.9229 32.2929 32.2929L29.9608 29.9608C26.7495 26.7495 22.5409 24.7268 18.0273 24.2253L16 24V11Z" fill="url(#paint1_radial_15260_10175)"/>
<path d="M34 14C36.2091 14 38 15.7909 38 18C38 20.2091 36.2091 22 34 22V14Z" fill="url(#paint2_linear_15260_10175)"/>
<path d="M9 24H15V26.3174C15 29.073 15.598 31.7957 16.7528 34.2976C17.3351 35.5595 16.4135 37 15.0237 37H10C9.44772 37 9 36.5523 9 36V24Z" fill="url(#paint3_radial_15260_10175)"/>
</g>
<defs>
<linearGradient id="paint0_linear_15260_10175" x1="9" y1="11" x2="9" y2="24" gradientUnits="userSpaceOnUse">
<stop stop-color="#E0D9FF"/>
<stop offset="1" stop-color="#C7B9FF"/>
</linearGradient>
<radialGradient id="paint1_radial_15260_10175" cx="0" cy="0" r="1" gradientUnits="userSpaceOnUse" gradientTransform="translate(29.5 0.500001) rotate(83.8534) scale(32.6879 18.3373)">
<stop stop-color="#D1C9F2"/>
<stop offset="1" stop-color="#8167EB"/>
</radialGradient>
<linearGradient id="paint2_linear_15260_10175" x1="36" y1="14" x2="36" y2="22" gradientUnits="userSpaceOnUse">
<stop stop-color="#E0D9FF"/>
<stop offset="1" stop-color="#C7B9FF"/>
</linearGradient>
<radialGradient id="paint3_radial_15260_10175" cx="0" cy="0" r="1" gradientUnits="userSpaceOnUse" gradientTransform="translate(15.75 23.3906) rotate(82.4498) scale(13.3186 9.14171)">
<stop stop-color="#D1C9F2"/>
<stop offset="1" stop-color="#8167EB"/>
</radialGradient>
</defs>
</svg>
