<svg width="40" height="40" viewBox="0 0 40 40" fill="none" xmlns="http://www.w3.org/2000/svg">
<mask id="mask0_3766_402095" style="mask-type:alpha" maskUnits="userSpaceOnUse" x="0" y="0" width="40" height="40">
<rect width="40" height="40" fill="#FF0000"/>
</mask>
<g mask="url(#mask0_3766_402095)">
<path fill-rule="evenodd" clip-rule="evenodd" d="M20.4994 38C30.7167 38 38.9994 29.9411 38.9994 20C38.9994 10.0589 30.7167 2 20.4994 2C10.2821 2 1.99939 10.0589 1.99939 20C1.99939 22.5363 2.53852 24.95 3.51137 27.1387L1.32705 32.2354C1.13716 32.6785 1.2904 33.194 1.6915 33.4614L2.24746 33.8321C2.41173 33.9416 2.60474 34 2.80216 34H8.87042C12.0477 36.5016 16.0937 38 20.4994 38Z" fill="url(#paint0_linear_3766_402095)"/>
<path fill-rule="evenodd" clip-rule="evenodd" d="M21.4993 39C31.1643 39 38.9993 30.7173 38.9993 20.5C38.9993 10.2827 31.1643 2 21.4993 2C11.8343 2 3.99931 10.2827 3.99931 20.5C3.99931 22.5314 4.30902 24.4863 4.88124 26.3148L2.50598 32.6489C2.26083 33.3026 2.7441 34 3.44231 34H9.53385C12.6633 37.101 16.8715 39 21.4993 39Z" fill="url(#paint1_linear_3766_402095)"/>
<g filter="url(#filter0_d_3766_402095)">
<path d="M18.2714 13.4895C18.125 11.6077 19.6125 10 21.5 10C23.3875 10 24.875 11.6077 24.7286 13.4895L24.0143 22.6737C23.9121 23.9867 22.8169 25 21.5 25C20.1831 25 19.0879 23.9867 18.9857 22.6737L18.2714 13.4895Z" fill="url(#paint2_linear_3766_402095)"/>
<path d="M19.1996 12.9934C19.0916 11.3734 20.3764 10 22 10C23.6236 10 24.9084 11.3734 24.8004 12.9934L24.133 23.0044C24.0582 24.1274 23.1255 25 22 25C20.8745 25 19.9418 24.1274 19.867 23.0044L19.1996 12.9934Z" fill="url(#paint3_linear_3766_402095)"/>
<ellipse cx="21.5" cy="29" rx="2.5" ry="2" fill="url(#paint4_linear_3766_402095)"/>
<circle cx="22" cy="29" r="2" fill="url(#paint5_linear_3766_402095)"/>
</g>
</g>
<defs>
<filter id="filter0_d_3766_402095" x="14.2617" y="7" width="12.5469" height="27" filterUnits="userSpaceOnUse" color-interpolation-filters="sRGB">
<feFlood flood-opacity="0" result="BackgroundImageFix"/>
<feColorMatrix in="SourceAlpha" type="matrix" values="0 0 0 0 0 0 0 0 0 0 0 0 0 0 0 0 0 0 127 0" result="hardAlpha"/>
<feOffset dx="-1"/>
<feGaussianBlur stdDeviation="1.5"/>
<feComposite in2="hardAlpha" operator="out"/>
<feColorMatrix type="matrix" values="0 0 0 0 0.904051 0 0 0 0 0.383208 0 0 0 0 0.00125581 0 0 0 1 0"/>
<feBlend mode="normal" in2="BackgroundImageFix" result="effect1_dropShadow_3766_402095"/>
<feBlend mode="normal" in="SourceGraphic" in2="effect1_dropShadow_3766_402095" result="shape"/>
</filter>
<linearGradient id="paint0_linear_3766_402095" x1="19.0163" y1="4" x2="3.37064" y2="27.1491" gradientUnits="userSpaceOnUse">
<stop stop-color="#F2B226"/>
<stop offset="1" stop-color="#FF8E14"/>
</linearGradient>
<linearGradient id="paint1_linear_3766_402095" x1="15.9997" y1="2" x2="20.9998" y2="39" gradientUnits="userSpaceOnUse">
<stop stop-color="#FFCA44"/>
<stop offset="1" stop-color="#FF993C"/>
</linearGradient>
<linearGradient id="paint2_linear_3766_402095" x1="21.5" y1="10" x2="21.5" y2="25" gradientUnits="userSpaceOnUse">
<stop stop-color="#FFCFBD"/>
<stop offset="1" stop-color="#FFA66E"/>
</linearGradient>
<linearGradient id="paint3_linear_3766_402095" x1="22" y1="10" x2="22" y2="25" gradientUnits="userSpaceOnUse">
<stop stop-color="#FFCCBA"/>
<stop offset="0.0001" stop-color="#FFF4EF"/>
<stop offset="1" stop-color="#FFE8DD"/>
</linearGradient>
<linearGradient id="paint4_linear_3766_402095" x1="21.5" y1="27" x2="21.5" y2="31" gradientUnits="userSpaceOnUse">
<stop stop-color="#FFC8B4"/>
<stop offset="1" stop-color="#FF8E3C"/>
</linearGradient>
<linearGradient id="paint5_linear_3766_402095" x1="22" y1="27" x2="22" y2="31" gradientUnits="userSpaceOnUse">
<stop stop-color="#FFCCBA"/>
<stop offset="0.0001" stop-color="#FFF4EF"/>
<stop offset="1" stop-color="#FFE8DD"/>
</linearGradient>
</defs>
</svg>
