<svg width="52" height="52" viewBox="0 0 52 52" fill="none" xmlns="http://www.w3.org/2000/svg">
<rect x="6.93359" y="22.5332" width="19.0667" height="24.2667" rx="3.46667" fill="url(#paint0_radial_13253_633844)"/>
<rect x="26" y="22.5332" width="19.0667" height="24.2667" rx="3.46667" fill="url(#paint1_radial_13253_633844)"/>
<path fill-rule="evenodd" clip-rule="evenodd" d="M30.3344 34.3793C30.3344 30.8815 32.7219 27.8936 34.8779 25.1393C36.3752 23.2266 37.2677 20.8176 37.2677 18.2003C37.2677 11.9779 32.2234 6.93359 26.001 6.93359C19.7786 6.93359 14.7344 11.9779 14.7344 18.2003C14.7344 20.8176 15.6269 23.2266 17.1242 25.1393C19.2802 27.8936 21.6677 30.8815 21.6677 34.3793V38.1336C21.6677 39.5695 22.8318 40.7336 24.2677 40.7336H27.7344C29.1703 40.7336 30.3344 39.5695 30.3344 38.1336V34.3793Z" fill="url(#paint2_linear_13253_633844)"/>
<path d="M21.666 35.5332H30.3327V38.1332C30.3327 39.5691 29.1686 40.7332 27.7327 40.7332H24.266C22.8301 40.7332 21.666 39.5691 21.666 38.1332V35.5332Z" fill="url(#paint3_linear_13253_633844)"/>
<path d="M21.666 33.8008H30.3327V34.6674H21.666V33.8008Z" fill="url(#paint4_linear_13253_633844)"/>
<line x1="25.9995" y1="0.866667" x2="25.9995" y2="2.6" stroke="#FF6D00" stroke-width="1.73333" stroke-linecap="round"/>
<line x1="13.3585" y1="5.70703" x2="14.5841" y2="6.93268" stroke="#FF6D00" stroke-width="1.73333" stroke-linecap="round"/>
<line x1="40.584" y1="6.06745" x2="39.3583" y2="7.2931" stroke="#FF6D00" stroke-width="1.73333" stroke-linecap="round"/>
<line x1="42.4673" y1="17.3335" x2="40.734" y2="17.3335" stroke="#FF6D00" stroke-width="1.73333" stroke-linecap="round"/>
<line x1="11.2661" y1="17.3335" x2="9.53281" y2="17.3335" stroke="#FF6D00" stroke-width="1.73333" stroke-linecap="round"/>
<defs>
<radialGradient id="paint0_radial_13253_633844" cx="0" cy="0" r="1" gradientUnits="userSpaceOnUse" gradientTransform="translate(19.9336 26.8665) rotate(123.111) scale(23.7979 13.9466)">
<stop stop-color="#EDEDED"/>
<stop offset="1" stop-color="#DFDFDF"/>
</radialGradient>
<radialGradient id="paint1_radial_13253_633844" cx="0" cy="0" r="1" gradientUnits="userSpaceOnUse" gradientTransform="translate(26 22.5332) rotate(54.2461) scale(26.6984 20.2042)">
<stop stop-color="#EDEDED"/>
<stop offset="1" stop-color="#DFDFDF"/>
</radialGradient>
<linearGradient id="paint2_linear_13253_633844" x1="28.601" y1="32.5003" x2="22.5344" y2="12.5669" gradientUnits="userSpaceOnUse">
<stop stop-color="#FFC42C"/>
<stop offset="1" stop-color="#FFEE9A"/>
</linearGradient>
<linearGradient id="paint3_linear_13253_633844" x1="25.9993" y1="37.4399" x2="25.9993" y2="40.7332" gradientUnits="userSpaceOnUse">
<stop stop-color="#FFA337"/>
<stop offset="1" stop-color="#FF6B00"/>
</linearGradient>
<linearGradient id="paint4_linear_13253_633844" x1="22.966" y1="32.9341" x2="30.3327" y2="35.5341" gradientUnits="userSpaceOnUse">
<stop stop-color="#FFB762"/>
<stop offset="1" stop-color="#FF9446"/>
</linearGradient>
</defs>
</svg>
